<?xml version="1.0" encoding="utf-8"?>
<!-- Generator: Adobe Illustrator 23.0.0, SVG Export Plug-In . SVG Version: 6.00 Build 0)  -->
<svg version="1.1" id="Capa_1" xmlns="http://www.w3.org/2000/svg" xmlns:xlink="http://www.w3.org/1999/xlink" x="0px" y="0px"
	 viewBox="0 0 512 270" style="enable-background:new 0 0 512 270;" xml:space="preserve">
<style type="text/css">
	.st0{fill:#999999;}
</style>
<g>
	<g>
		<path class="st0" d="M508.2,125C503.6,119.9,393.7,0,256,0S8.4,119.9,3.8,125c-5.1,5.7-5.1,14.3,0,20c4.6,5.1,114.5,125,252.2,125
			s247.6-119.9,252.2-125C513.3,139.3,513.3,130.7,508.2,125z M256,240c-57.9,0-105-47.1-105-105S198.1,30,256,30s105,47.1,105,105
			S313.9,240,256,240z"/>
	</g>
</g>
<g>
	<g>
		<path class="st0" d="M271,105c0-15.1,7.5-28.4,18.9-36.5C279.7,63.2,268.3,60,256,60c-41.4,0-75,33.6-75,75s33.6,75,75,75
			c37,0,67.7-27,73.7-62.4C299.5,157.4,271,134.5,271,105z"/>
	</g>
</g>
</svg>
